<svg id="menu_investigations_icon_selected" xmlns="http://www.w3.org/2000/svg" width="21.454" height="20.82" viewBox="0 0 21.454 20.82">
  <circle id="Ellipse_8" data-name="Ellipse 8" cx="2.189" cy="2.189" r="2.189" transform="translate(2.408 0)" fill="#fff"/>
  <path id="Path_23" data-name="Path 23" d="M22.94,13a.876.876,0,0,0-.876-.876H14.622a.219.219,0,0,0-.219.219,2.161,2.161,0,0,1-.352,1.187.223.223,0,0,0,.188.345h1.473a.224.224,0,0,1,.223.223v7.654a.876.876,0,0,0,1.751.056q0-.028,0-.056V14.1a.224.224,0,0,1,.223-.223h4.154A.875.875,0,0,0,22.94,13Z" transform="translate(-1.489 -1.84)" fill="#fff"/>
  <path id="Path_24" data-name="Path 24" d="M15.569,8.616a.876.876,0,1,0,0,1.752h4.2a1.757,1.757,0,0,0,1.646-1.153l1.543-4.239a.875.875,0,1,0-1.637-.619l-.007.021L19.772,8.616Z" transform="translate(-1.561 -0.955)" fill="#fff"/>
  <path id="Path_25" data-name="Path 25" d="M8.118,17.277a.874.874,0,0,1,.8.517l1.49,3.307A1.313,1.313,0,1,0,12.8,20.013l-1.722-3.789a3.071,3.071,0,0,0-2.79-1.8H6.346a.44.44,0,0,1-.438-.438V11.467l.747.747a3.04,3.04,0,0,0,2.167.894h1.9A1.315,1.315,0,0,0,12.039,11.8a1.33,1.33,0,0,0-1.313-1.311h-1.9a.445.445,0,0,1-.309-.129L5.526,7.37A1.313,1.313,0,0,0,3.284,8.3V13.99a3.02,3.02,0,0,0,.426,1.532H2.937L1.74,7.943a.875.875,0,1,0-1.729.274L1.3,16.35.031,20.983a.875.875,0,1,0,1.689.46h0l1.092-4.005a.223.223,0,0,1,.215-.165Z" transform="translate(0 -1.294)" fill="#fff"/>
</svg>
