<svg xmlns="http://www.w3.org/2000/svg" width="22.772" height="18.217" viewBox="0 0 22.772 18.217">
  <path id="menu_legal_icon" d="M9.109,10.532h0c0-.576.048-.311-3.026-6.458a1.709,1.709,0,0,0-3.055,0C-.073,10.274,0,9.974,0,10.532H0c0,1.572,2.039,2.846,4.554,2.846S9.109,12.1,9.109,10.532ZM4.554,4.839,7.116,9.963H1.993Zm18.217,5.693c0-.576.048-.311-3.026-6.458a1.709,1.709,0,0,0-3.055,0c-3.1,6.2-3.026,5.9-3.026,6.458h0c0,1.572,2.039,2.846,4.554,2.846s4.554-1.275,4.554-2.846Zm-7.115-.569,2.562-5.124,2.562,5.124Zm3.131,5.978H12.524V5.453a2.849,2.849,0,0,0,1.651-2.037h4.612a.569.569,0,0,0,.569-.569V1.708a.569.569,0,0,0-.569-.569H13.65a2.821,2.821,0,0,0-4.529,0H3.985a.569.569,0,0,0-.569.569V2.846a.569.569,0,0,0,.569.569H8.6a2.849,2.849,0,0,0,1.651,2.037V15.94H3.985a.569.569,0,0,0-.569.569v1.139a.569.569,0,0,0,.569.569h14.8a.569.569,0,0,0,.569-.569V16.51A.569.569,0,0,0,18.787,15.94Z" fill="#a7cfff"/>
</svg>
