<svg xmlns="http://www.w3.org/2000/svg" width="19.356" height="19.356" viewBox="0 0 19.356 19.356">
  <path id="menu_government_icon" d="M18.964,3.482,10.1.077a1.208,1.208,0,0,0-.849,0L.392,3.482A.6.6,0,0,0,0,4.049v1.4a.6.6,0,0,0,.6.6H18.751a.6.6,0,0,0,.6-.6v-1.4A.6.6,0,0,0,18.964,3.482ZM2.419,7.258v6.049h-.6a.6.6,0,0,0-.6.6v1.815H18.146V13.912a.6.6,0,0,0-.6-.6h-.6V7.258h-2.42v6.049H10.888V7.258H8.468v6.049H4.839V7.258Zm16.332,9.678H.6a.6.6,0,0,0-.6.6v1.21a.6.6,0,0,0,.6.6H18.751a.6.6,0,0,0,.6-.6v-1.21A.6.6,0,0,0,18.751,16.936Z" fill="#a7cfff"/>
</svg>
